<svg focusable="false" class="rpl-icon rpl-icon--hamburger rpl-icon--color_white" width="18" height="14" viewBox="0 0 18 14" xmlns="http://www.w3.org/2000/svg"><style>.a{fill:inherit;}</style><path d="M0 1C0 0.4 0.4 0 1 0H9C9.6 0 10 0.4 10 1 10 1.6 9.6 2 9 2H1C0.4 2 0 1.6 0 1Z" class="a"/><path d="M0 5C0 4.4 0.4 4 1 4H17C17.6 4 18 4.4 18 5 18 5.6 17.6 6 17 6H1C0.4 6 0 5.6 0 5Z" class="a"/><path d="M0 9C0 8.4 0.4 8 1 8H13C13.6 8 14 8.4 14 9 14 9.6 13.6 10 13 10H1C0.4 10 0 9.6 0 9Z" class="a"/><path d="M0 13C0 12.4 0.4 12 1 12H17C17.6 12 18 12.4 18 13 18 13.6 17.6 14 17 14H1C0.4 14 0 13.6 0 13Z" class="a"/></svg>
